<svg width="126" height="64" viewBox="0 0 126 64" fill="none" xmlns="http://www.w3.org/2000/svg">
<path d="M45.2717 59.802H46.9616L47.1245 60.2367H45.1088L45.2717 59.802ZM45.4631 59.9439L45.4191 60.0406L44.8528 61.3785H44.3356L46.107 57.3791L47.8783 61.3785H47.3611L46.8052 60.0742L46.7625 59.9645L46.1083 58.4318L45.4631 59.9439Z" fill="#59595C"/>
<path d="M51.8218 61.3785H51.3576L51.8218 57.3817L53.3462 60.1387L54.8732 57.3817L55.336 61.3785H54.8732L54.59 58.8073L53.3462 61.025L52.105 58.8073L51.8218 61.3785Z" fill="#59595C"/>
<path d="M57.0466 60.9437H58.9705V61.3785H57.0466V60.9437ZM57.0466 59.095H58.8567V59.5297H57.0466V59.095ZM57.0466 57.5726H58.9705V58.0074H57.0466V57.5726ZM57.2548 61.3785H56.7906V57.5726H57.2548V61.3785Z" fill="#59595C"/>
<path d="M60.8337 61.3785H60.3708L60.8337 57.3817L62.3593 60.1387L63.885 57.3817L64.3479 61.3785H63.885L63.6019 58.8073L62.3593 61.025L61.1168 58.8073L60.8337 61.3785Z" fill="#59595C"/>
<path d="M66.1684 59.1117H66.7851C66.9031 59.1135 67.0201 59.0911 67.129 59.0459C67.2249 59.0062 67.3078 58.9405 67.3682 58.8563C67.4284 58.7663 67.4591 58.66 67.4562 58.5518C67.4604 58.4714 67.4453 58.391 67.412 58.3176C67.3787 58.2442 67.3282 58.1798 67.2648 58.13C67.1268 58.0268 66.9575 57.974 66.7851 57.9803H66.2679V60.9708H66.8394C66.9884 60.974 67.1363 60.9445 67.2726 60.8844C67.3927 60.8306 67.495 60.7438 67.5673 60.6341C67.641 60.5149 67.6779 60.3767 67.6734 60.2367C67.6755 60.1305 67.6553 60.025 67.6139 59.9271C67.5754 59.8385 67.5164 59.7603 67.4419 59.6987C67.3657 59.6359 67.2778 59.5886 67.1833 59.5594C67.0733 59.5278 66.9591 59.5126 66.8446 59.5143H66.1748V59.2562H66.8446C67.0189 59.2546 67.1926 59.275 67.3618 59.3169C67.5085 59.3528 67.6477 59.4144 67.7729 59.4988C67.8891 59.5786 67.9837 59.6859 68.0483 59.811C68.116 59.9517 68.1492 60.1065 68.1453 60.2625C68.154 60.483 68.0939 60.7007 67.9733 60.8857C67.8587 61.0509 67.6983 61.1791 67.5118 61.2546C67.3012 61.3398 67.0756 61.3815 66.8485 61.3772H65.8141V57.5713H66.7851C66.989 57.5671 67.1918 57.6021 67.3825 57.6745C67.5428 57.7366 67.6804 57.846 67.7768 57.988C67.8772 58.1481 67.9268 58.3347 67.919 58.5234C67.923 58.6871 67.873 58.8475 67.7768 58.9801C67.6757 59.1118 67.5388 59.2117 67.3825 59.2678C67.191 59.3365 66.9885 59.3698 66.7851 59.3659H66.1697L66.1684 59.1117Z" fill="#59595C"/>
<path d="M69.9011 60.9437H71.8276V61.3785H69.9011V60.9437ZM69.9011 59.095H71.7112V59.5297H69.9011V59.095ZM69.9011 57.5726H71.8276V58.0074H69.9011V57.5726ZM70.108 61.3785H69.6451V57.5726H70.108V61.3785Z" fill="#59595C"/>
<path d="M74.6411 59.5026L76.0038 61.3785H75.4311L74.1239 59.5026H74.6411ZM73.6985 57.5675H74.4743C74.7025 57.5638 74.9286 57.6109 75.1363 57.7055C75.3238 57.7925 75.4838 57.929 75.5991 58.1003C75.7117 58.2831 75.7712 58.4934 75.7712 58.7079C75.7712 58.9224 75.7117 59.1328 75.5991 59.3156C75.4843 59.4879 75.3242 59.6254 75.1363 59.7129C74.9286 59.8075 74.7025 59.8546 74.4743 59.851H73.6985V59.4536H74.4743C74.6232 59.4563 74.771 59.4268 74.9074 59.3672C75.0274 59.3137 75.1293 59.2268 75.2009 59.1169C75.2704 58.996 75.307 58.859 75.307 58.7195C75.307 58.5801 75.2704 58.4431 75.2009 58.3222C75.1293 58.2123 75.0274 58.1253 74.9074 58.0719C74.7711 58.0119 74.6233 57.9824 74.4743 57.9855H73.6985V57.5675ZM73.9054 61.3733H73.4425V57.5675H73.9054V61.3733Z" fill="#59595C"/>
<path d="M80.1904 60.2419C80.3142 60.4662 80.496 60.6533 80.717 60.7836C80.9379 60.9139 81.1899 60.9826 81.4465 60.9826C81.7032 60.9826 81.9551 60.9139 82.176 60.7836C82.397 60.6533 82.5788 60.4662 82.7026 60.2419C82.8266 60.0054 82.8914 59.7425 82.8914 59.4756C82.8914 59.2086 82.8266 58.9457 82.7026 58.7092C82.5783 58.4856 82.3962 58.2992 82.1753 58.1694C81.9545 58.0397 81.7028 57.9712 81.4465 57.9712C81.1902 57.9712 80.9386 58.0397 80.7177 58.1694C80.4968 58.2992 80.3148 58.4856 80.1904 58.7092C80.0672 58.946 80.0029 59.2088 80.0029 59.4756C80.0029 59.7423 80.0672 60.0051 80.1904 60.2419ZM79.6564 58.7015C79.7486 58.4692 79.8872 58.2581 80.0637 58.0809C80.2393 57.9038 80.4485 57.7635 80.6791 57.6681C81.1725 57.4685 81.7244 57.4685 82.2178 57.6681C82.4473 57.7642 82.6555 57.9044 82.8306 58.0809C83.0067 58.2582 83.1448 58.4693 83.2366 58.7015C83.4303 59.1994 83.4303 59.7517 83.2366 60.2496C83.1452 60.4827 83.007 60.6948 82.8306 60.8728C82.6555 61.0492 82.4473 61.1895 82.2178 61.2856C81.7244 61.4851 81.1725 61.4851 80.6791 61.2856C80.4485 61.1902 80.2393 61.0499 80.0637 60.8728C79.8869 60.6948 79.7483 60.4828 79.6564 60.2496C79.4644 59.7514 79.4644 59.1997 79.6564 58.7015Z" fill="#59595C"/>
<path d="M85.092 59.095H86.7431V59.5297H85.092V59.095ZM85.092 57.5726H86.7974V58.0074H85.092V57.5726ZM85.2989 61.3785H84.836V57.5726H85.2989V61.3785Z" fill="#59595C"/>
<path d="M91.1624 59.1117H91.7778C91.8954 59.1136 92.012 59.0912 92.1205 59.0459C92.2169 59.0066 92.3003 58.9408 92.3609 58.8563C92.4211 58.7664 92.4514 58.6599 92.4476 58.5518C92.4518 58.4715 92.4368 58.3913 92.4037 58.3179C92.3707 58.2446 92.3205 58.1801 92.2575 58.13C92.1195 58.0268 91.9502 57.974 91.7778 57.9803H91.2606V60.9708H91.8321C91.9811 60.974 92.129 60.9445 92.2653 60.8844C92.3854 60.8306 92.4877 60.7438 92.5601 60.6341C92.6337 60.5149 92.6706 60.3767 92.6661 60.2367C92.6682 60.1305 92.648 60.025 92.6066 59.9271C92.5681 59.8386 92.5092 59.7603 92.4346 59.6987C92.3585 59.6358 92.2706 59.5884 92.1761 59.5594C92.0665 59.5277 91.9527 59.5124 91.8386 59.5143H91.1689V59.2562H91.8386C92.0129 59.2544 92.1867 59.2748 92.3558 59.3169C92.5029 59.3529 92.6425 59.4145 92.7682 59.4988C92.8844 59.5783 92.9786 59.6856 93.0423 59.811C93.111 59.9514 93.1447 60.1063 93.1406 60.2625C93.1493 60.483 93.0892 60.7007 92.9686 60.8857C92.8541 61.0514 92.6931 61.1798 92.5058 61.2546C92.2956 61.3396 92.0705 61.3813 91.8438 61.3772H90.8094V57.5713H91.7895C91.993 57.567 92.1954 57.602 92.3855 57.6745C92.5464 57.7362 92.6845 57.8456 92.7812 57.988C92.8816 58.1481 92.9311 58.3348 92.9234 58.5234C92.9273 58.6871 92.8774 58.8475 92.7812 58.9801C92.6798 59.1121 92.5424 59.212 92.3855 59.2678C92.1945 59.3366 91.9925 59.3699 91.7895 59.3659H91.174L91.1624 59.1117Z" fill="#59595C"/>
<path d="M97.9905 57.5726V61.5681L95.102 58.5454V61.3785H94.6391V57.3817L97.5263 60.4057V57.5726H97.9905Z" fill="#59595C"/>
<path d="M100.125 57.5726H99.6622V61.3785H100.125V57.5726Z" fill="#59595C"/>
<path d="M106.005 59.4536H107.772C107.773 59.7096 107.732 59.9641 107.651 60.207C107.575 60.4385 107.455 60.6534 107.298 60.8405C107.141 61.0262 106.944 61.1755 106.723 61.2779C106.48 61.3881 106.215 61.4428 105.947 61.4378C105.685 61.4403 105.424 61.3916 105.181 61.2946C104.949 61.2017 104.739 61.0626 104.564 60.8857C104.388 60.7076 104.25 60.4961 104.158 60.2638C103.965 59.7595 103.965 59.2019 104.158 58.6976C104.25 58.4653 104.388 58.2538 104.564 58.0758C104.739 57.8989 104.949 57.7597 105.181 57.6668C105.424 57.5698 105.685 57.5211 105.947 57.5236C106.166 57.5218 106.384 57.5531 106.594 57.6165C106.786 57.6744 106.967 57.7662 107.128 57.8874C107.288 58.0098 107.424 58.1612 107.529 58.3338L107.201 58.6331C107.083 58.4304 106.909 58.2653 106.7 58.157C106.466 58.0377 106.205 57.9787 105.942 57.9855C105.689 57.9827 105.439 58.0475 105.22 58.1731C105 58.2988 104.818 58.4807 104.692 58.7002C104.565 58.9406 104.499 59.208 104.499 59.4794C104.499 59.7509 104.565 60.0183 104.692 60.2586C104.817 60.4791 104.998 60.662 105.218 60.7882C105.438 60.9145 105.688 60.9793 105.942 60.976C106.118 60.9792 106.293 60.9508 106.459 60.8921C106.603 60.8392 106.735 60.7585 106.847 60.6547C106.955 60.5548 107.046 60.4375 107.116 60.3077C107.187 60.1758 107.24 60.0347 107.273 59.8884H106.003L106.005 59.4536Z" fill="#59595C"/>
<path d="M110.457 59.5026L111.819 61.3785H111.247L109.939 59.5026H110.457ZM109.515 57.5675H110.29C110.518 57.5637 110.745 57.6108 110.952 57.7055C111.14 57.7925 111.301 57.929 111.416 58.1003C111.528 58.2834 111.587 58.4936 111.587 58.7079C111.587 58.9223 111.528 59.1325 111.416 59.3156C111.301 59.488 111.141 59.6254 110.952 59.7129C110.745 59.8076 110.518 59.8548 110.29 59.851H109.515V59.4536H110.29C110.439 59.4563 110.587 59.4268 110.723 59.3672C110.844 59.3134 110.946 59.2266 111.018 59.1169C111.088 58.996 111.124 58.859 111.124 58.7195C111.124 58.5801 111.088 58.4431 111.018 58.3222C110.946 58.2125 110.844 58.1256 110.723 58.0719C110.587 58.0118 110.439 57.9822 110.29 57.9855H109.515V57.5675ZM109.721 61.3733H109.257V57.5675H109.721V61.3733Z" fill="#59595C"/>
<path d="M113.571 60.2419C113.694 60.4662 113.876 60.6533 114.097 60.7836C114.318 60.9139 114.57 60.9826 114.827 60.9826C115.083 60.9826 115.335 60.9139 115.556 60.7836C115.777 60.6533 115.959 60.4662 116.083 60.2419C116.206 60.0051 116.27 59.7423 116.27 59.4755C116.27 59.2088 116.206 58.946 116.083 58.7092C115.958 58.4856 115.776 58.2992 115.555 58.1694C115.335 58.0397 115.083 57.9712 114.827 57.9712C114.57 57.9712 114.319 58.0397 114.098 58.1694C113.877 58.2992 113.695 58.4856 113.571 58.7092C113.447 58.946 113.383 59.2088 113.383 59.4755C113.383 59.7423 113.447 60.0051 113.571 60.2419ZM113.037 58.7015C113.129 58.4695 113.267 58.2585 113.442 58.0809C113.619 57.9044 113.828 57.7641 114.058 57.6681C114.552 57.4686 115.104 57.4686 115.598 57.6681C115.827 57.7645 116.035 57.9047 116.211 58.0809C116.386 58.2585 116.524 58.4695 116.617 58.7015C116.81 59.1994 116.81 59.7517 116.617 60.2496C116.525 60.4825 116.387 60.6944 116.211 60.8727C116.035 61.0489 115.827 61.1892 115.598 61.2856C115.104 61.4851 114.552 61.4851 114.058 61.2856C113.828 61.1895 113.619 61.0493 113.442 60.8727C113.267 60.6944 113.128 60.4825 113.037 60.2496C112.843 59.7517 112.843 59.1994 113.037 58.7015Z" fill="#59595C"/>
<path d="M118.652 57.5726V60.1284C118.641 60.3579 118.717 60.5831 118.865 60.7592C119.035 60.9129 119.256 60.998 119.486 60.998C119.715 60.998 119.936 60.9129 120.106 60.7592C120.254 60.5831 120.33 60.3579 120.32 60.1284V57.5726H120.783V60.1284C120.784 60.3044 120.753 60.4793 120.692 60.6444C120.637 60.7991 120.549 60.94 120.433 61.0572C120.317 61.1757 120.177 61.2685 120.022 61.3295C119.678 61.4602 119.298 61.4602 118.954 61.3295C118.8 61.2688 118.659 61.176 118.543 61.0572C118.428 60.9396 118.34 60.7988 118.285 60.6444C118.224 60.4791 118.194 60.3043 118.195 60.1284V57.5726H118.652Z" fill="#59595C"/>
<path d="M122.685 57.5726H123.46C123.688 57.5688 123.915 57.616 124.122 57.7107C124.31 57.7976 124.471 57.9341 124.586 58.1054C124.698 58.2885 124.757 58.4987 124.757 58.7131C124.757 58.9274 124.698 59.1376 124.586 59.3207C124.471 59.4931 124.311 59.6306 124.122 59.7181C123.915 59.8128 123.688 59.8599 123.46 59.8561H122.685V59.4214H123.46C123.676 59.4314 123.888 59.3682 124.063 59.242C124.136 59.1745 124.194 59.0927 124.234 59.0017C124.274 58.9107 124.294 58.8124 124.294 58.7131C124.294 58.6138 124.274 58.5155 124.234 58.4245C124.194 58.3335 124.136 58.2516 124.063 58.1841C123.887 58.06 123.675 57.9978 123.46 58.0074H122.685V57.5726ZM122.891 61.3785H122.428V57.5726H122.891V61.3785Z" fill="#59595C"/>
<path d="M44.8748 53.6119V35.8934H48.6515V41.9079C49.435 41.2594 50.3935 40.9352 51.527 40.9352C53.2604 40.9352 54.6025 41.4551 55.5533 42.4949C56.504 43.5348 56.9781 44.9195 56.9755 46.6491V53.6158H53.2091V47.3265C53.2091 46.444 53.0217 45.7327 52.6467 45.1926C52.2717 44.6525 51.6921 44.382 50.9077 44.3811C50.0457 44.3811 49.2958 44.7389 48.658 45.4545V53.6145L44.8748 53.6119Z" fill="#036B80"/>
<path d="M59.829 41.1339H63.6057V53.6106H59.829V41.1339ZM63.4803 39.3612H59.979C59.6413 38.9667 59.4629 38.4608 59.4787 37.9421C59.4787 37.3464 59.7158 36.7751 60.138 36.3539C60.5601 35.9326 61.1327 35.696 61.7297 35.696C62.3267 35.696 62.8992 35.9326 63.3214 36.3539C63.7435 36.7751 63.9807 37.3464 63.9807 37.9421C63.9965 38.4608 63.8181 38.9667 63.4803 39.3612Z" fill="#036B80"/>
<path d="M73.886 42.9504C73.0714 42.9375 72.2667 43.1306 71.547 43.5116C70.8964 43.8473 70.348 44.3512 69.9593 44.9707V49.7622C70.3477 50.382 70.8961 50.886 71.547 51.2213C72.2664 51.6034 73.0712 51.7969 73.886 51.7838C75.1031 51.7838 76.1077 51.3637 76.8998 50.5234C77.692 49.6831 78.0876 48.6312 78.0868 47.3677C78.0868 46.1026 77.6911 45.0498 76.8998 44.2095C76.1086 43.3692 75.1039 42.9495 73.886 42.9504ZM67.8091 53.6055V35.8882H69.9606V42.3763C70.9769 41.4112 72.3021 40.9287 73.9364 40.9287C75.7715 40.9287 77.2929 41.5441 78.5005 42.7749C79.7081 44.0057 80.3115 45.5366 80.3107 47.3677C80.3107 49.1971 79.7073 50.7272 78.5005 51.958C77.2938 53.1888 75.7724 53.8046 73.9364 53.8055C72.2987 53.8055 70.9734 53.323 69.9606 52.3579V53.6055H67.8091Z" fill="#036B80"/>
<path d="M88.8403 51.7838C89.6499 51.7977 90.4501 51.6088 91.1676 51.2342C91.8249 50.8954 92.3794 50.3871 92.7734 49.7622V44.9707C92.3804 44.3468 91.8279 43.8387 91.1727 43.4987C90.4549 43.1251 89.6549 42.9367 88.8454 42.9504C87.6283 42.9504 86.6237 43.3705 85.8316 44.2108C85.0394 45.0511 84.6438 46.103 84.6446 47.3665C84.6446 48.6308 85.0403 49.6831 85.8316 50.5234C86.6228 51.3637 87.6275 51.7838 88.8454 51.7838M92.7734 53.6055V52.3579C91.7072 53.323 90.3819 53.805 88.7976 53.8042C86.9625 53.8042 85.4407 53.1888 84.2322 51.958C83.0237 50.7272 82.4203 49.1967 82.4221 47.3665C82.4221 45.5371 83.0254 44.0065 84.2322 42.7749C85.4389 41.5433 86.9607 40.9279 88.7976 40.9287C90.3802 40.9287 91.7054 41.4112 92.7734 42.3763V41.1339H94.9236V53.6106L92.7734 53.6055Z" fill="#036B80"/>
<path d="M98.668 53.6055V41.1339H100.819V42.553C101.702 41.4719 102.995 40.9313 104.698 40.9313C106.115 40.9313 107.274 41.3928 108.175 42.3156C109.076 43.2385 109.526 44.4654 109.525 45.9963V53.6081H107.372V46.1254C107.372 45.1939 107.089 44.4327 106.521 43.8418C105.954 43.251 105.187 42.956 104.221 42.9568C102.452 42.9568 101.319 43.8216 100.819 45.5512V53.6119L98.668 53.6055Z" fill="#036B80"/>
<path d="M113.123 53.6055V35.8869H115.273V46.7678L120.801 41.1274H123.627L117.824 46.9923L124.202 53.6055H121.301L115.273 47.3677V53.6055H113.123Z" fill="#036B80"/>
<path d="M15.7278 9.47817C15.7281 10.8704 15.3146 12.2314 14.5396 13.3891C13.7646 14.5468 12.6629 15.4492 11.374 15.9822C10.085 16.5152 8.66653 16.6547 7.29804 16.3833C5.92955 16.1118 4.67246 15.4415 3.68577 14.4572C2.69907 13.4728 2.02708 12.2186 1.75479 10.8532C1.48249 9.48771 1.62211 8.07236 2.156 6.78609C2.68989 5.49982 3.59406 4.40041 4.75417 3.62691C5.91427 2.85341 7.27821 2.44055 8.67348 2.44055C9.5998 2.44038 10.5171 2.62229 11.373 2.97589C12.2288 3.32949 13.0065 3.84785 13.6616 4.50137C14.3166 5.15489 14.8363 5.93077 15.1908 6.78469C15.5453 7.63862 15.7278 8.55387 15.7278 9.47817Z" fill="#CF5926"/>
<path d="M15.7278 28.1036C15.7281 29.4958 15.3146 30.8569 14.5396 32.0146C13.7646 33.1723 12.6629 34.0747 11.374 34.6077C10.085 35.1406 8.66654 35.2802 7.29804 35.0087C5.92955 34.7373 4.67247 34.067 3.68577 33.0826C2.69908 32.0983 2.02709 30.8441 1.75479 29.4786C1.48249 28.1132 1.62212 26.6978 2.15601 25.4115C2.68989 24.1253 3.59406 23.0259 4.75417 22.2524C5.91428 21.4789 7.27821 21.066 8.67348 21.066C9.59981 21.0658 10.5171 21.2477 11.373 21.6013C12.2288 21.9549 13.0065 22.4733 13.6616 23.1268C14.3166 23.7803 14.8363 24.5562 15.1908 25.4101C15.5453 26.2641 15.7278 27.1793 15.7278 28.1036Z" fill="#CF5926"/>
<path d="M34.8764 28.1036C34.8767 29.4959 34.4631 30.857 33.6881 32.0147C32.913 33.1725 31.8113 34.0749 30.5222 34.6078C29.2332 35.1407 27.8147 35.2802 26.4462 35.0086C25.0776 34.7371 23.8205 34.0667 22.8339 33.0822C21.8473 32.0977 21.1754 30.8434 20.9032 29.4778C20.6311 28.1123 20.7709 26.6969 21.305 25.4106C21.839 24.1244 22.7434 23.0251 23.9037 22.2517C25.064 21.4784 26.428 21.0657 27.8234 21.066C29.6939 21.066 31.4879 21.8075 32.8106 23.1273C34.1333 24.4471 34.8764 26.2371 34.8764 28.1036Z" fill="#CF5926"/>
<path d="M34.8764 9.4678C34.8767 10.8601 34.4631 12.2212 33.6881 13.3789C32.913 14.5366 31.8113 15.439 30.5222 15.9719C29.2332 16.5049 27.8147 16.6444 26.4462 16.3728C25.0776 16.1013 23.8205 15.4308 22.8339 14.4463C21.8473 13.4619 21.1754 12.2075 20.9032 10.842C20.6311 9.47646 20.7709 8.06106 21.305 6.77482C21.839 5.48857 22.7434 4.38926 23.9037 3.61591C25.064 2.84256 26.428 2.42992 27.8234 2.43018C29.6939 2.43018 31.4879 3.17164 32.8106 4.49145C34.1333 5.81126 34.8764 7.6013 34.8764 9.4678Z" fill="#036B80"/>
<path d="M34.8764 46.742C34.8767 48.1343 34.4631 49.4954 33.6881 50.6531C32.913 51.8109 31.8113 52.7133 30.5222 53.2462C29.2332 53.7791 27.8147 53.9186 26.4462 53.647C25.0776 53.3755 23.8205 52.7051 22.8339 51.7206C21.8473 50.7361 21.1754 49.4818 20.9032 48.1162C20.6311 46.7507 20.7709 45.3353 21.305 44.0491C21.839 42.7628 22.7434 41.6635 23.9037 40.8901C25.064 40.1168 26.428 39.7042 27.8234 39.7044C29.6939 39.7044 31.4879 40.4459 32.8106 41.7657C34.1333 43.0855 34.8764 44.8755 34.8764 46.742Z" fill="#CF5926"/>
<path d="M15.7278 46.742C15.7281 48.1343 15.3146 49.4953 14.5396 50.653C13.7646 51.8107 12.6629 52.7131 11.374 53.2461C10.085 53.779 8.66654 53.9186 7.29804 53.6471C5.92955 53.3757 4.67247 52.7054 3.68577 51.721C2.69908 50.7367 2.02709 49.4825 1.75479 48.117C1.48249 46.7516 1.62212 45.3362 2.15601 44.0499C2.68989 42.7637 3.59406 41.6643 4.75417 40.8908C5.91428 40.1173 7.27821 39.7044 8.67348 39.7044C9.59981 39.7042 10.5171 39.8861 11.373 40.2397C12.2288 40.5933 13.0065 41.1117 13.6616 41.7652C14.3166 42.4188 14.8363 43.1946 15.1908 44.0486C15.5453 44.9025 15.7278 45.8177 15.7278 46.742Z" fill="#CF5926"/>
</svg>
